<svg width="141" height="163" viewBox="0 0 141 163" fill="none" xmlns="http://www.w3.org/2000/svg">
<path d="M70.5343 0L0.137329 40.5899V121.907L70.5343 162.565L140.931 121.907V40.5899L70.5343 0Z" fill="#7DC4F9"/>
<path opacity="0.4" d="M93.9542 135.3C87.3609 135.3 83.9957 138.871 80.9738 142.03C78.0892 145.052 75.6167 147.662 70.4657 147.662C65.3147 147.662 62.8422 145.052 59.9576 142.03C56.9357 138.871 53.5705 135.3 46.9772 135.3C40.5899 135.3 37.2245 138.596 34.34 141.687L37.4306 143.472C39.9717 140.863 42.4442 138.734 47.0458 138.734C52.1968 138.734 54.6693 141.343 57.5538 144.365C60.5757 147.525 63.9412 151.096 70.5344 151.096C77.1277 151.096 80.493 147.525 83.5149 144.365C86.3994 141.343 88.872 138.734 94.023 138.734C98.6245 138.734 101.097 140.863 103.638 143.472L106.729 141.687C103.707 138.596 100.341 135.3 93.9542 135.3Z" fill="white"/>
<path opacity="0.4" d="M36.5379 106.729C39.4224 103.707 41.8948 101.097 47.0458 101.097C52.1968 101.097 54.6693 103.707 57.5538 106.729C60.5757 109.888 63.9412 113.459 70.5344 113.459C77.1277 113.459 80.493 109.888 83.5149 106.729C86.3994 103.707 88.872 101.097 94.0229 101.097C99.174 101.097 101.646 103.707 104.531 106.729C107.553 109.888 110.918 113.459 117.511 113.459C124.105 113.459 127.47 109.888 130.492 106.729C133.376 103.707 135.849 101.097 141 101.097V97.663C134.407 97.663 131.041 101.234 128.02 104.394C125.135 107.416 122.662 110.025 117.511 110.025C112.36 110.025 109.888 107.416 107.003 104.394C103.981 101.234 100.616 97.663 94.0229 97.663C87.4297 97.663 84.0643 101.234 81.0423 104.394C78.1578 107.416 75.6854 110.025 70.5344 110.025C65.3834 110.025 62.9109 107.416 60.0264 104.394C57.0044 101.234 53.639 97.663 47.0458 97.663C40.4525 97.663 37.0872 101.234 34.0653 104.394C31.1807 107.416 28.7082 110.025 23.5572 110.025C18.4062 110.025 15.9337 107.416 13.0492 104.394C10.0273 101.234 6.662 97.663 0.0687256 97.663V101.097C5.21972 101.097 7.69224 103.707 10.5768 106.729C13.5987 109.888 16.964 113.459 23.5572 113.459C30.1505 113.459 33.5846 109.888 36.5379 106.729Z" fill="white"/>
<path opacity="0.4" d="M104.394 19.9859C101.509 23.0078 99.0366 25.6176 93.8856 25.6176C88.7346 25.6176 86.2621 23.0078 83.3776 19.9859C80.3557 16.8266 76.9902 13.2552 70.397 13.2552C63.8037 13.2552 60.4384 16.8266 57.4165 19.9859C54.532 23.0078 52.0595 25.6176 46.9085 25.6176C41.7575 25.6176 39.2849 23.0078 36.4004 19.9859C36.3317 19.9172 36.2632 19.8485 36.1945 19.7798L33.1039 21.5655C33.3786 21.8402 33.6533 22.115 33.928 22.3897C36.9499 25.549 40.3152 29.1203 46.9085 29.1203C53.5017 29.1203 56.8671 25.549 59.8891 22.3897C62.7736 19.3678 65.246 16.7579 70.397 16.7579C75.548 16.7579 78.0205 19.3678 80.905 22.3897C83.927 25.549 87.2924 29.1203 93.8856 29.1203C100.479 29.1203 103.844 25.549 106.866 22.3897C107.141 22.115 107.415 21.7716 107.69 21.4968L104.6 19.7112C104.6 19.7798 104.531 19.9172 104.394 19.9859Z" fill="white"/>
<path opacity="0.4" d="M127.951 60.4384C125.066 63.4603 122.594 66.0702 117.443 66.0702C112.292 66.0702 109.819 63.4603 106.935 60.4384C103.913 57.2791 100.548 53.7078 93.9542 53.7078C87.3609 53.7078 83.9957 57.2791 80.9738 60.4384C78.0892 63.4603 75.6167 66.0702 70.4657 66.0702C65.3147 66.0702 62.8422 63.4603 59.9576 60.4384C56.9357 57.2791 53.5705 53.7078 46.9772 53.7078C40.3839 53.7078 37.0185 57.2791 33.9966 60.4384C31.112 63.4603 28.6397 66.0702 23.4887 66.0702C18.3377 66.0702 15.8652 63.4603 12.9806 60.4384C9.9587 57.2791 6.59328 53.7078 0 53.7078V57.1418C5.151 57.1418 7.62351 59.7516 10.5081 62.7735C13.53 65.9328 16.8954 69.5042 23.4887 69.5042C30.082 69.5042 33.4472 65.9328 36.4691 62.7735C39.3537 59.7516 41.8262 57.1418 46.9772 57.1418C52.1282 57.1418 54.6007 59.7516 57.4853 62.7735C60.5072 65.9328 63.8724 69.5042 70.4657 69.5042C77.059 69.5042 80.4242 65.9328 83.4462 62.7735C86.3307 59.7516 88.8032 57.1418 93.9542 57.1418C99.1052 57.1418 101.578 59.7516 104.462 62.7735C107.484 65.9328 110.849 69.5042 117.443 69.5042C124.036 69.5042 127.401 65.9328 130.423 62.7735C133.308 59.7516 135.78 57.1418 140.931 57.1418V53.7078C134.338 53.7078 130.904 57.2791 127.951 60.4384Z" fill="white"/>
<path d="M36.057 104.188C38.9415 101.166 41.62 98.3498 47.0458 98.3498C52.4715 98.3498 55.15 101.166 58.0345 104.188C61.0565 107.416 64.2159 110.712 70.5344 110.712C76.853 110.712 80.0122 107.416 83.0342 104.188C85.9187 101.166 88.5972 98.3498 94.0229 98.3498C99.4487 98.3498 102.127 101.166 105.012 104.188C108.034 107.416 111.193 110.712 117.511 110.712C123.83 110.712 126.989 107.416 130.011 104.188C132.896 101.166 135.574 98.3498 141 98.3498V96.2894C134.681 96.2894 131.522 99.586 128.5 102.814C125.616 105.836 122.937 108.652 117.511 108.652C112.086 108.652 109.407 105.836 106.523 102.814C103.501 99.586 100.342 96.2894 94.0229 96.2894C87.7044 96.2894 84.5452 99.586 81.5232 102.814C78.6387 105.836 75.9602 108.652 70.5344 108.652C65.1087 108.652 62.4302 105.836 59.5456 102.814C56.5237 99.586 53.3643 96.2894 47.0458 96.2894C40.7272 96.2894 37.568 99.586 34.546 102.814C31.6615 105.836 28.983 108.652 23.5572 108.652C18.1315 108.652 15.453 105.836 12.5684 102.814C9.54653 99.586 6.38728 96.2894 0.0687256 96.2894V98.3498C5.49444 98.3498 8.17296 101.166 11.0575 104.188C14.0794 107.416 17.2387 110.712 23.5572 110.712C29.8758 110.712 33.035 107.347 36.057 104.188Z" fill="white"/>
<path d="M106.454 140.382C103.432 137.154 100.273 133.857 93.9542 133.857C87.6357 133.857 84.4764 137.154 81.4545 140.382C78.57 143.404 75.8914 146.22 70.4657 146.22C65.04 146.22 62.3615 143.404 59.4769 140.382C56.455 137.154 53.2958 133.857 46.9772 133.857C40.6587 133.857 37.4994 137.154 34.4775 140.382C34.2028 140.657 33.9279 141 33.6532 141.275L35.5077 142.305C35.6451 142.099 35.8511 141.962 35.9884 141.755C38.873 138.734 41.5515 135.918 46.9772 135.918C52.4029 135.918 55.0814 138.734 57.966 141.755C60.9879 144.983 64.1472 148.28 70.4657 148.28C76.7843 148.28 79.9435 144.983 82.9654 141.755C85.85 138.734 88.5285 135.918 93.9542 135.918C99.3799 135.918 102.058 138.734 104.943 141.755C105.08 141.962 105.286 142.099 105.424 142.305L107.278 141.275C107.004 141 106.729 140.725 106.454 140.382Z" fill="white"/>
<path d="M93.8856 24.244C88.4599 24.244 85.7814 21.4282 82.8968 18.4062C79.8749 15.1783 76.7155 11.8817 70.3969 11.8817C64.0784 11.8817 60.9191 15.1783 57.8972 18.4062C55.0126 21.4282 52.3341 24.244 46.9084 24.244C42.1008 24.244 39.4224 21.9776 36.8812 19.3678L35.0267 20.398C37.9113 23.4199 41.0019 26.3044 46.9084 26.3044C53.227 26.3044 56.3862 23.0078 59.4081 19.7798C62.2927 16.7579 64.9712 13.9421 70.3969 13.9421C75.8226 13.9421 78.5012 16.7579 81.3857 19.7798C84.4076 23.0078 87.567 26.3044 93.8856 26.3044C99.7921 26.3044 102.951 23.3512 105.836 20.398L103.982 19.3678C101.44 21.9776 98.7619 24.244 93.8856 24.244Z" fill="white"/>
<path d="M128.432 58.8588C125.547 61.8807 122.868 64.6966 117.443 64.6966C112.017 64.6966 109.339 61.8807 106.454 58.8588C103.432 55.6308 100.273 52.3342 93.9542 52.3342C87.6357 52.3342 84.4764 55.6308 81.4545 58.8588C78.5699 61.8807 75.8914 64.6966 70.4657 64.6966C65.04 64.6966 62.3615 61.8807 59.4769 58.8588C56.455 55.6308 53.2958 52.3342 46.9772 52.3342C40.6586 52.3342 37.4994 55.6308 34.4775 58.8588C31.5929 61.8807 28.9144 64.6966 23.4887 64.6966C18.063 64.6966 15.3844 61.8807 12.4999 58.8588C9.47797 55.6308 6.31856 52.3342 0 52.3342V54.3946C5.42572 54.3946 8.10424 57.2104 10.9888 60.2324C14.0107 63.4603 17.1701 66.757 23.4887 66.757C29.8072 66.757 32.9665 63.4603 35.9884 60.2324C38.873 57.2104 41.5515 54.3946 46.9772 54.3946C52.4029 54.3946 55.0814 57.2104 57.966 60.2324C60.9879 63.4603 64.1472 66.757 70.4657 66.757C76.7843 66.757 79.9435 63.4603 82.9654 60.2324C85.85 57.2104 88.5285 54.3946 93.9542 54.3946C99.3799 54.3946 102.058 57.2104 104.943 60.2324C107.965 63.4603 111.124 66.757 117.443 66.757C123.761 66.757 126.921 63.4603 129.943 60.2324C132.827 57.2104 135.506 54.3946 140.931 54.3946V52.3342C134.613 52.3342 131.453 55.6308 128.432 58.8588Z" fill="white"/>
</svg>
