<svg width="141" height="163" viewBox="0 0 141 163" fill="none" xmlns="http://www.w3.org/2000/svg">
<path d="M70.5 0L141 40.718V122.085L70.5 162.803L0 122.085V40.718L70.5 0Z" fill="#9595F4"/>
<path opacity="0.4" d="M75.9336 71.8069C63.3468 64.7225 51.5166 58.0508 47.5961 49.1093C43.8131 40.3742 44.0195 29.163 48.559 12.6556L44.3634 15.063C40.5117 30.6073 40.5805 41.6122 44.4322 50.4849C48.7654 60.4581 61.1458 67.4049 74.2141 74.7644C97.118 87.6951 123.048 102.277 115.07 137.011L119.059 134.741C121.81 119.816 118.715 107.229 109.636 96.3615C100.97 85.9069 88.2453 78.7537 75.9336 71.8069Z" fill="white"/>
<path opacity="0.4" d="M99.7317 145.952C102.345 131.233 99.1814 118.784 90.2399 108.054C81.5048 97.5308 68.7804 90.3776 56.4687 83.4996C43.8819 76.4152 32.0516 69.7435 28.1311 60.802C24.417 52.2732 24.6922 40.9244 29.2317 23.8669L25.1048 26.2742C21.1844 42.3688 21.2531 53.5113 25.036 62.1776C29.3692 72.1508 41.7497 79.0976 54.818 86.4571C77.6531 99.3191 103.446 113.832 95.8111 148.222L99.7317 145.952Z" fill="white"/>
<path d="M72.9761 72.1507C60.3205 64.9975 48.3527 58.2571 44.3635 49.178C40.6493 40.718 40.7869 29.3692 44.8449 14.8566L42.3001 16.301C38.7235 30.401 38.7922 41.4746 42.5064 50.0034C46.7707 59.7702 59.0137 66.6483 72.0132 74.0078C95.4673 87.2136 122.017 102.208 112.869 138.386L115.345 136.942C118.853 121.122 116.033 107.848 106.61 96.5678C97.8747 86.1819 85.2191 79.0288 72.9761 72.1507Z" fill="white"/>
<path d="M95.9488 148.153C99.319 132.54 96.4302 119.472 87.0761 108.26C78.4097 97.8746 65.7541 90.7215 53.5111 83.8434C40.8555 76.6902 28.8878 69.9498 24.8985 60.8707C21.1843 52.2732 21.3907 40.7868 25.5175 25.999L22.9726 27.4434C19.2584 41.7498 19.2585 53.0298 23.0414 61.6273C27.3058 71.3941 39.5487 78.2722 52.5482 85.6317C75.8648 98.7688 102.277 113.694 93.5414 149.529L95.9488 148.153Z" fill="white"/>
</svg>
