<svg width="141" height="163" viewBox="0 0 141 163" fill="none" xmlns="http://www.w3.org/2000/svg">
<path d="M70.4313 0L0 40.6784V121.966L70.4313 162.645L140.931 121.966V40.6784L70.4313 0Z" fill="#F7A4D3"/>
<path opacity="0.4" d="M140.931 40.6784L137.702 38.8231L91.8013 44.4576L73.6608 1.85526L70.4313 0L67.2018 1.85526L49.1301 44.3889L3.2295 38.7544L0 40.6097V44.3202L27.829 81.288L0 118.256V121.966L3.2295 123.822L49.1301 118.187L67.2704 160.79L70.5001 162.645L73.7296 160.79L91.8699 118.187L137.771 123.822L141 121.966V118.256L113.171 81.288L141 44.3202V40.6784H140.931ZM138.251 120.455L89.6711 114.545L70.5001 159.621L51.3289 114.545L2.74854 120.455L32.1579 81.3567L2.74854 42.1901L51.3289 48.0994L70.5001 3.02339L89.6711 48.0994L138.251 42.1901L108.842 81.3567L138.251 120.455Z" fill="white"/>
<path d="M140.931 40.6784L140.794 40.6097L90.4956 46.7252L70.6374 0.0687124L70.5 0L70.3625 0.0687124L50.5043 46.7252L0.206119 40.6097L0.0687256 40.6784V40.8158L30.5774 81.3568L0.0687256 121.898V122.035L0.206119 122.104L50.5043 115.988L70.3625 162.645L70.5 162.714L70.6374 162.645L90.4956 115.988L140.794 122.104L140.931 122.035V121.898L110.422 81.3568L140.931 40.8158V40.6784ZM136.534 119.493L89.1213 113.721L70.4313 157.697L51.7412 113.721L4.32893 119.493L33.0512 81.3568L4.32893 43.2208L51.7412 48.9927L70.4313 5.01608L89.1213 48.9927L136.534 43.2208L107.811 81.3568L136.534 119.493Z" fill="white"/>
</svg>
