<svg width="141" height="163" viewBox="0 0 141 163" fill="none" xmlns="http://www.w3.org/2000/svg">
<path d="M70.5 0L0 40.7181V122.085L70.5 162.803L141 122.085V40.7181L70.5 0Z" fill="#78EFEC"/>
<path opacity="0.4" d="M78.9994 33.7612L24.5771 88.1834L27.0089 90.6151L81.4311 36.1929L78.9994 33.7612Z" fill="white"/>
<path opacity="0.4" d="M87.7639 9.97314L0 97.6683V102.552L90.7903 11.6927L87.7639 9.97314Z" fill="white"/>
<path opacity="0.4" d="M20.2903 133.847L82.2615 71.8068L79.8542 69.3995L17.1952 132.059L20.2903 133.847Z" fill="white"/>
<path opacity="0.4" d="M141 97.6683L101.658 137.011L104.065 139.487L141 102.483V97.6683Z" fill="white"/>
<path d="M86.182 9.01025L0 95.1922V98.1498L88.039 10.1107L86.182 9.01025Z" fill="white"/>
<path d="M78.8344 31.426L24.704 85.5564L26.163 87.0154L80.2934 32.885L78.8344 31.426Z" fill="white"/>
<path d="M17.4702 132.196L81.161 68.5741L79.7166 67.061L15.6132 131.164L17.4702 132.196Z" fill="white"/>
<path d="M141 95.1922L101.658 134.603L103.102 136.048L141 98.081V95.1922Z" fill="white"/>
</svg>
