<svg width="141" height="163" viewBox="0 0 141 163" fill="none" xmlns="http://www.w3.org/2000/svg">
<path d="M70.5 0L0 40.718V122.085L70.5 162.803L141 122.085V40.718L70.5 0Z" fill="#A4F498"/>
<path d="M69.5385 15.8119L69.4072 66.228L71.4706 66.2334L71.6019 15.8173L69.5385 15.8119Z" fill="white"/>
<path d="M70.5 97.9434C69.0557 97.9434 67.6113 97.7371 66.2357 97.3932C61.9713 96.2239 58.3947 93.5414 56.1937 89.6897C53.9927 85.838 53.3737 81.4361 54.543 77.1717C55.7122 72.9073 58.3947 69.3307 62.2464 67.1297C66.0293 64.9288 70.5 64.3097 74.7644 65.479C79.0288 66.6483 82.6054 69.3307 84.8064 73.1824C87.0074 77.0341 87.6264 81.4361 86.4571 85.7005C85.2878 89.9649 82.6054 93.5414 78.7537 95.7424C76.2088 97.1868 73.3888 97.9434 70.5 97.9434ZM70.5 66.9922C68.0239 66.9922 65.5479 67.68 63.2781 68.918C59.9078 70.8439 57.5693 73.939 56.5376 77.6532C55.5059 81.3673 56.0561 85.2878 57.982 88.5893C59.9079 91.9595 63.003 94.298 66.7171 95.3297C70.4313 96.3614 74.3518 95.8112 77.6532 93.8853C81.0235 91.9595 83.362 88.8644 84.3937 85.1502C85.4254 81.4361 84.8752 77.5156 82.9493 74.2141C81.0235 70.8439 77.9283 68.5053 74.2142 67.4736C72.9761 67.1297 71.7381 66.9922 70.5 66.9922Z" fill="white"/>
<path d="M84.8063 8.25363L83.018 7.22192C80.5419 11.5551 75.8648 14.5127 70.4999 14.5127C65.1351 14.5127 60.458 11.5551 57.9819 7.22192L56.1936 8.25363C59.0136 13.2058 64.3785 16.5761 70.4999 16.5761C76.6214 16.5761 81.9175 13.2058 84.8063 8.25363Z" fill="white"/>
<path d="M69.5202 96.6476L69.3889 147.064L71.4523 147.069L71.5836 96.653L69.5202 96.6476Z" fill="white"/>
<path d="M56.1936 154.55L57.9819 155.581C60.458 151.248 65.1351 148.291 70.4999 148.291C75.8648 148.291 80.5419 151.248 83.018 155.581L84.8063 154.55C81.9863 149.598 76.6214 146.227 70.4999 146.227C64.3785 146.227 59.0824 149.598 56.1936 154.55Z" fill="white"/>
<path d="M14.2003 47.6437L13.1638 49.428L56.7586 74.752L57.7951 72.9677L14.2003 47.6437Z" fill="white"/>
<path d="M14.3063 32.4644L12.518 33.4961C15.0629 37.8293 15.2693 43.3317 12.5868 48.0088C9.90439 52.6171 5.02098 55.162 0 55.162V57.2254C5.70878 57.2254 11.28 54.2678 14.3063 48.9717C17.4015 43.6756 17.1951 37.4166 14.3063 32.4644Z" fill="white"/>
<path d="M84.2364 88.0665L83.2 89.8508L126.795 115.175L127.831 113.391L84.2364 88.0665Z" fill="white"/>
<path d="M126.694 130.339L128.482 129.307C125.937 124.974 125.731 119.472 128.413 114.795C131.096 110.186 135.979 107.573 140.931 107.573V105.509C135.222 105.509 129.651 108.467 126.625 113.763C123.599 119.128 123.805 125.387 126.694 130.339Z" fill="white"/>
<path d="M56.7928 88.1708L13.0669 113.263L14.0939 115.053L57.8197 89.9604L56.7928 88.1708Z" fill="white"/>
<path d="M0 105.578V107.641C5.02098 107.641 9.90439 110.186 12.5868 114.863C15.2693 119.472 15.0629 124.974 12.5868 129.307L14.3751 130.339C17.2639 125.387 17.4702 119.128 14.3751 113.832C11.28 108.536 5.70878 105.578 0 105.578Z" fill="white"/>
<path d="M126.831 47.7885L83.1055 72.8806L84.1324 74.6702L127.858 49.5781L126.831 47.7885Z" fill="white"/>
<path d="M141 57.2254V55.162C135.979 55.162 131.095 52.6171 128.413 47.94C125.731 43.3317 125.937 37.8293 128.413 33.4961L126.625 32.4644C123.736 37.4166 123.53 43.6756 126.625 48.9717C129.72 54.2678 135.291 57.2254 141 57.2254Z" fill="white"/>
<path opacity="0.4" d="M125.524 40.6492H15.4067V42.7126H125.524V40.6492Z" fill="white"/>
<path opacity="0.4" d="M125.524 121.26H15.4067V123.323H125.524V121.26Z" fill="white"/>
<path opacity="0.4" d="M62.2192 13.6153L7.1604 108.977L8.94732 110.009L64.0061 14.647L62.2192 13.6153Z" fill="white"/>
<path opacity="0.4" d="M132.03 53.9483L76.9709 149.31L78.7579 150.342L133.817 54.98L132.03 53.9483Z" fill="white"/>
<path opacity="0.4" d="M8.93609 53.976L7.14917 55.0077L62.2079 150.369L63.9949 149.338L8.93609 53.976Z" fill="white"/>
<path opacity="0.4" d="M78.7217 13.6213L76.9348 14.653L131.994 110.015L133.781 108.983L78.7217 13.6213Z" fill="white"/>
</svg>
