<svg width="141" height="163" viewBox="0 0 141 163" fill="none" xmlns="http://www.w3.org/2000/svg">
<path d="M70.5 0L0 40.718V122.085L70.5 162.803L141 122.085V40.718L70.5 0Z" fill="#F9B88C"/>
<path opacity="0.34" d="M117.202 26.9619L113.557 24.8297L113.281 25.6551C107.366 44.6385 102.277 67.8175 101.176 85.5629C100.695 85.6317 100.144 85.7004 99.5941 85.7692C89.1395 87.2824 77.1029 94.7107 66.5107 106.128C55.781 117.683 47.4585 132.127 42.9878 146.915L46.6332 149.047C55.0244 119.953 79.579 92.7848 100.144 89.896C100.419 89.8273 100.695 89.8273 100.97 89.8273C100.832 96.4302 101.382 102.139 102.758 106.266C106.747 117.958 112.319 120.297 115.276 120.641C118.646 121.054 121.948 119.265 124.011 115.964C126.556 111.906 127.725 104.34 122.704 96.3614C118.509 89.6897 112.525 86.0443 105.303 85.5629C105.578 81.2985 106.059 76.4838 106.885 71.3253C108.879 57.7756 112.662 41.6121 117.202 26.9619ZM119.265 98.5624C123.255 104.89 122.498 110.668 120.572 113.694C119.334 115.62 117.615 116.652 115.826 116.445C112.525 116.033 109.086 111.699 106.747 104.821C105.509 101.245 105.028 96.1551 105.165 89.6209C111.08 90.1024 115.758 93.0599 119.265 98.5624Z" fill="white"/>
<path opacity="0.34" d="M91.3406 12.2429L91.822 14.2375C93.6791 22.4912 94.5045 32.1892 88.4518 41.0619C85.9069 36.4536 81.7801 32.6707 77.3781 30.1946C68.643 25.2424 59.2888 25.4488 53.5801 30.6761C47.3898 36.3161 46.5645 45.0512 51.4479 51.7917C56.1937 58.3946 66.0293 62.1775 77.2406 55.9873C80.4045 54.199 83.8435 52.0668 86.9386 49.178C87.1449 50.6912 87.0762 52.2044 86.7323 53.7863C84.3249 65.7541 74.902 72.7697 67.4049 76.5527C58.2571 81.1609 47.7337 83.2244 38.9986 83.2931C41.9562 76.8966 43.4005 71.6005 40.3742 67.3361C37.4166 63.0029 33.0147 61.2834 28.3376 62.4527C22.7664 63.897 17.9518 69.2619 17.4703 74.6956C17.0576 78.96 19.3962 82.6053 23.7981 84.7375C26.0679 85.838 29.0254 86.5946 32.5332 87.0073C32.1893 87.6263 31.9142 88.1766 31.5703 88.7956C25.4488 100.419 17.1264 116.17 20.7718 133.984L25.724 136.804L25.3113 135.085C20.9093 117.89 28.8879 102.827 35.2845 90.6527C35.9035 89.4834 36.5225 88.3829 37.0727 87.2824C46.702 87.6263 58.7386 85.4941 69.3308 80.1292C81.2986 74.1453 88.7269 65.2727 90.8591 54.4741C91.4781 51.3102 91.2718 48.2839 90.4464 45.3951C95.8113 38.7234 99.1127 29.0941 96.224 14.6502L91.6845 12.0366L91.3406 12.2429ZM75.2459 52.4107C68.7806 55.9873 59.9079 56.4688 54.8181 49.4531C51.723 45.1888 51.0352 38.6546 56.4001 33.7024C58.5323 31.7078 61.4898 30.7449 64.7913 30.7449C68.0927 30.7449 71.8069 31.7766 75.3835 33.7712C79.6479 36.1785 83.5684 39.9614 85.6318 44.5697C83.0181 47.321 79.6479 49.9346 75.2459 52.4107ZM34.4591 83.1556C30.8825 82.8805 27.7874 82.1239 25.5176 81.0922C22.6288 79.7166 21.322 77.7219 21.5284 75.1771C21.8723 71.4629 25.4488 67.5424 29.3693 66.5107C29.9196 66.3731 30.5386 66.3044 31.1576 66.3044C33.0147 66.3044 35.0781 67.061 36.9352 69.7434C38.9986 72.6322 37.4166 77.3092 34.4591 83.1556Z" fill="white"/>
<path d="M91.3404 12.6556C93.335 21.5971 94.2292 32.1893 86.8696 41.681C84.5311 36.5912 80.1292 32.3956 75.4521 29.7132C67.0609 25.0361 58.257 25.1737 52.8921 30.0571C47.1145 35.3532 46.2892 43.4693 50.8975 49.8659C55.3682 56.0561 64.6535 59.7015 75.3833 53.7176C78.9599 51.7229 82.8804 49.1781 86.1818 45.6703C86.7321 47.8712 86.8696 50.2098 86.3882 52.6171C83.9121 64.9976 74.214 72.2195 66.5106 76.14C56.7438 81.0234 45.3262 83.1556 36.1784 82.9493C39.4111 76.2088 41.0618 70.7064 38.2418 66.5795C35.4906 62.5903 31.6389 61.0083 27.3058 62.1088C22.0784 63.4844 17.6765 68.4366 17.195 73.4576C16.8511 77.3093 18.8458 80.542 22.9038 82.4678C25.5175 83.7059 28.9565 84.4625 32.9458 84.8064C32.3955 85.9756 31.7765 87.1449 31.1575 88.3142C24.7609 100.763 16.7823 116.239 20.7028 133.984L23.1789 135.429L23.0414 134.879C18.5706 117.34 26.5492 101.795 32.9458 89.2771C33.7023 87.7639 34.4589 86.3195 35.1467 84.9439C37.554 85.0127 40.0989 84.9439 42.7126 84.7376C51.3789 83.981 60.1828 81.5737 67.4048 77.9283C75.5209 73.8703 85.7692 66.1668 88.3828 53.0298C89.0018 49.8659 88.7267 46.7708 87.7638 43.882C93.1974 37.3478 96.5677 27.7873 93.5414 13.3434L91.134 11.9678L91.3404 12.6556ZM74.3516 51.9293C64.7911 57.2254 56.5375 54.1303 52.5482 48.6278C49.2467 44.0195 48.4901 36.9351 54.2677 31.5703C56.6062 29.3693 59.7701 28.3376 63.3467 28.3376C66.8545 28.3376 70.7062 29.3693 74.4204 31.5015C79.0287 34.1151 83.3618 38.3108 85.3565 43.4005C82.7428 46.4268 79.0975 49.3156 74.3516 51.9293ZM33.9087 82.8805C29.7818 82.6054 26.274 81.8488 23.7292 80.6795C20.4965 79.1664 18.9145 76.759 19.1897 73.7327C19.6023 69.6059 23.454 65.2727 27.7872 64.1722C28.4062 64.0347 29.1628 63.8971 29.9194 63.8971C31.9828 63.8971 34.4589 64.7912 36.5223 67.8176C38.8609 71.1878 37.0726 76.3464 33.9087 82.8805Z" fill="white"/>
<path d="M112.938 24.4858L112.869 24.6234C106.885 43.8819 101.658 67.4736 100.764 85.219C100.007 85.2878 99.1816 85.3566 98.425 85.4253C88.2455 86.8697 76.4152 94.1605 65.8918 105.44C55.0933 117.064 46.7708 131.646 42.3689 146.571L44.226 147.603L44.2948 147.328C52.8235 117.821 77.7221 90.3775 98.7001 87.42C99.3879 87.3512 100.007 87.2824 100.695 87.2136C100.488 94.2292 100.97 100.144 102.414 104.409C106.266 115.551 111.356 117.752 114.038 118.096C116.996 118.44 119.884 116.858 121.742 113.9C124.149 110.118 125.249 102.964 120.435 95.4673C116.239 88.8644 110.186 85.2878 102.827 85.1502C103.515 70.7063 107.023 50.141 114.726 25.5175L112.938 24.4858ZM118.784 96.6366C123.048 103.377 122.154 109.567 120.091 112.869C118.646 115.139 116.583 116.377 114.382 116.101C110.599 115.689 106.954 111.218 104.409 103.79C103.24 100.282 102.621 94.6419 102.827 87.2136C109.499 87.42 114.932 90.6527 118.784 96.6366Z" fill="white"/>
</svg>
